<?xml version="1.0" encoding="UTF-8" standalone="no"?>
<!-- Created with Inkscape (http://www.inkscape.org/) -->

<svg
   xmlns:dc="http://purl.org/dc/elements/1.1/"
   xmlns:cc="http://creativecommons.org/ns#"
   xmlns:rdf="http://www.w3.org/1999/02/22-rdf-syntax-ns#"
   xmlns:svg="http://www.w3.org/2000/svg"
   xmlns="http://www.w3.org/2000/svg"
   xmlns:sodipodi="http://sodipodi.sourceforge.net/DTD/sodipodi-0.dtd"
   xmlns:inkscape="http://www.inkscape.org/namespaces/inkscape"
   width="210mm"
   height="297mm"
   viewBox="0 0 744.09448819 1052.3622047"
   id="svg4429"
   version="1.1"
   inkscape:version="0.91 r13725"
   sodipodi:docname="neuron3-inkscape2-a2c.svg">
  <defs
     id="defs4431" />
  <sodipodi:namedview
     id="base"
     pagecolor="#ffffff"
     bordercolor="#666666"
     borderopacity="1.0"
     inkscape:pageopacity="0.0"
     inkscape:pageshadow="2"
     inkscape:zoom="1.4142136"
     inkscape:cx="266.73767"
     inkscape:cy="520"
     inkscape:document-units="px"
     inkscape:current-layer="layer1"
     showgrid="false"
     inkscape:window-width="1920"
     inkscape:window-height="1015"
     inkscape:window-x="0"
     inkscape:window-y="0"
     inkscape:window-maximized="1" />
  <metadata
     id="metadata4434">
    <rdf:RDF>
      <cc:Work
         rdf:about="">
        <dc:format>image/svg+xml</dc:format>
        <dc:type
           rdf:resource="http://purl.org/dc/dcmitype/StillImage" />
        <dc:title />
      </cc:Work>
    </rdf:RDF>
  </metadata>
  <g
     inkscape:label="Layer 1"
     inkscape:groupmode="layer"
     id="layer1">
    <path
       style="fill:#800000;fill-opacity:1;fill-rule:evenodd;stroke:#000000;stroke-width:1px;stroke-linecap:butt;stroke-linejoin:miter;stroke-opacity:1"
       d="m 152.21653,429.93559 c 31.8743,-7.93563 57.6403,20.54997 87.99144,24.63713 19.20541,0.96479 42.53662,9.4235 59.29211,-2.65947 15.54975,-24.00523 15.11193,-54.05065 26.5599,-79.94699 5.61101,-28.65507 14.72383,-61.02771 42.89298,-75.1866 21.98605,-14.97202 55.23477,-23.79071 77.58555,-4.91251 13.40598,17.63478 9.42868,43.92168 3.0242,64.057 -8.88616,21.18214 -16.61189,45.07637 -12.83602,68.14901 12.35151,26.84771 44.11036,33.9981 70.95944,34.53256 31.77709,3.36493 64.15694,12.14854 91.38723,29.41153 32.57551,22.75463 42.45592,68.48205 33.18909,105.51551 -7.88534,30.8235 -44.75582,23.37068 -61.02712,3.66722 -17.71689,-16.18818 -36.52862,-31.01825 -55.5188,-45.6786 -28.55936,-5.99776 -39.03506,28.94901 -20.14233,46.26604 15.99961,20.90092 -0.29723,49.82896 -6.23027,72.31299 -13.50397,27.31008 -36.33903,48.74903 -57.56203,70.13771 -17.28093,14.38076 -39.96829,26.76668 -62.81557,18.57317 -27.25148,-20.20962 5.14169,-53.94432 13.11863,-77.048 7.95758,-19.42031 43.28911,-47.38236 22.63003,-66.40437 -25.95973,-4.11635 -26.33719,37.29264 -34.98485,55.26796 -6.33501,25.67076 -6.66332,55.9975 -27.2075,75.02699 -20.5885,11.59131 -48.51784,18.81195 -70.02897,5.68729 -23.50478,-18.57386 -6.59833,-50.62311 2.02232,-72.65217 15.57089,-31.83699 31.86234,-67.03716 21.90003,-103.22423 -15.47729,-21.64536 -49.46463,-17.28974 -73.21412,-25.43224 -22.89796,-7.44676 -42.39096,-22.7403 -59.45536,-39.15727 -16.18969,-18.2059 -34.63074,-40.49601 -25.10155,-66.53176 1.76202,-7.08203 7.10119,-11.65889 13.57154,-14.4079 z"
       id="path4349"
       inkscape:connector-curvature="0" />
  </g>
</svg>
