<?xml version="1.0" encoding="UTF-8" standalone="no"?>
<!-- Created with Inkscape (http://www.inkscape.org/) -->

<svg
   xmlns:dc="http://purl.org/dc/elements/1.1/"
   xmlns:cc="http://creativecommons.org/ns#"
   xmlns:rdf="http://www.w3.org/1999/02/22-rdf-syntax-ns#"
   xmlns:svg="http://www.w3.org/2000/svg"
   xmlns="http://www.w3.org/2000/svg"
   xmlns:sodipodi="http://sodipodi.sourceforge.net/DTD/sodipodi-0.dtd"
   xmlns:inkscape="http://www.inkscape.org/namespaces/inkscape"
   width="210mm"
   height="297mm"
   viewBox="0 0 744.09448819 1052.3622047"
   id="svg4429"
   version="1.1"
   inkscape:version="0.91 r13725"
   sodipodi:docname="neuron3-inkscape2-a5c.svg">
  <defs
     id="defs4431" />
  <sodipodi:namedview
     id="base"
     pagecolor="#ffffff"
     bordercolor="#666666"
     borderopacity="1.0"
     inkscape:pageopacity="0.0"
     inkscape:pageshadow="2"
     inkscape:zoom="1.4142136"
     inkscape:cx="270.0469"
     inkscape:cy="520"
     inkscape:document-units="px"
     inkscape:current-layer="layer1"
     showgrid="false"
     inkscape:window-width="1920"
     inkscape:window-height="1015"
     inkscape:window-x="0"
     inkscape:window-y="0"
     inkscape:window-maximized="1" />
  <metadata
     id="metadata4434">
    <rdf:RDF>
      <cc:Work
         rdf:about="">
        <dc:format>image/svg+xml</dc:format>
        <dc:type
           rdf:resource="http://purl.org/dc/dcmitype/StillImage" />
        <dc:title />
      </cc:Work>
    </rdf:RDF>
  </metadata>
  <g
     inkscape:label="Layer 1"
     inkscape:groupmode="layer"
     id="layer1">
    <path
       style="fill:#800000;fill-opacity:1;fill-rule:evenodd;stroke:#000000;stroke-width:1px;stroke-linecap:butt;stroke-linejoin:miter;stroke-opacity:1"
       d="m 152.21653,429.93559 c 31.8743,-7.93563 57.6403,20.54997 87.99144,24.63713 18.29971,0.21177 43.27565,10.78052 57.46417,-3.48062 5.13234,-25.45326 -6.94581,-50.32981 -6.12296,-75.98348 -3.63175,-24.97912 -12.81891,-55.32656 7.67417,-75.42883 17.86219,-16.97529 44.54794,-23.74455 67.89295,-14.1377 22.78884,7.3337 31.34626,31.16353 38.22841,51.66073 4.87541,21.92526 1.36405,44.95509 8.83205,66.58651 6.90131,29.2851 37.18234,45.81219 64.61531,51.37033 25.84979,11.1162 45.168,-10.77426 63.40996,-25.40206 21.11452,-16.36663 43.14849,-35.83743 70.37375,-39.65992 31.9682,11.46439 23.94849,55.41269 17.304,81.35273 -8.97191,30.12965 -32.50747,59.10769 -65.88166,61.05314 -21.0083,5.3479 -43.94469,6.92566 -61.71997,20.48348 -37.3592,13.76801 0.3731,52.42165 10.17438,74.20527 14.43618,24.97065 26.94517,53.40485 18.85369,82.75839 -0.72567,26.61328 -19.51174,60.37979 -50.79788,49.89869 -33.46389,-3.70099 -39.91952,-40.30456 -46.41872,-66.75564 -5.41335,-24.00081 1.9412,-52.27091 -15.38628,-72.39038 -25.33356,-20.87963 -36.77558,9.28931 -43.116,29.50116 -11.89592,30.61342 -8.28883,67.32402 -30.4167,93.42199 -18.33974,12.5375 -43.31484,18.52035 -64.8232,11.76761 -29.59045,-10.66845 -19.44062,-46.50894 -9.57128,-67.91966 14.73268,-33.83215 35.60049,-69.01401 26.58797,-107.41101 -9.13206,-26.62873 -47.80421,-21.3102 -70.85108,-29.01854 -24.31726,-6.94967 -44.88269,-22.98814 -62.76678,-40.16966 -16.18969,-18.2059 -34.63074,-40.49602 -25.10155,-66.53176 1.76204,-7.08202 7.10133,-11.65919 13.57181,-14.4079 z"
       id="path4349"
       inkscape:connector-curvature="0" />
  </g>
</svg>
