<?xml version="1.0" encoding="UTF-8" standalone="no"?>
<!-- Created with Inkscape (http://www.inkscape.org/) -->

<svg
   xmlns:dc="http://purl.org/dc/elements/1.1/"
   xmlns:cc="http://creativecommons.org/ns#"
   xmlns:rdf="http://www.w3.org/1999/02/22-rdf-syntax-ns#"
   xmlns:svg="http://www.w3.org/2000/svg"
   xmlns="http://www.w3.org/2000/svg"
   xmlns:sodipodi="http://sodipodi.sourceforge.net/DTD/sodipodi-0.dtd"
   xmlns:inkscape="http://www.inkscape.org/namespaces/inkscape"
   width="210mm"
   height="297mm"
   viewBox="0 0 744.09448819 1052.3622047"
   id="svg4429"
   version="1.1"
   inkscape:version="0.91 r13725"
   sodipodi:docname="neuron3-inkscape2-a0c.svg">
  <defs
     id="defs4431" />
  <sodipodi:namedview
     id="base"
     pagecolor="#ffffff"
     bordercolor="#666666"
     borderopacity="1.0"
     inkscape:pageopacity="0.0"
     inkscape:pageshadow="2"
     inkscape:zoom="1.4"
     inkscape:cx="373.56569"
     inkscape:cy="520"
     inkscape:document-units="px"
     inkscape:current-layer="layer1"
     showgrid="false"
     inkscape:window-width="1282"
     inkscape:window-height="982"
     inkscape:window-x="554"
     inkscape:window-y="19"
     inkscape:window-maximized="0" />
  <metadata
     id="metadata4434">
    <rdf:RDF>
      <cc:Work
         rdf:about="">
        <dc:format>image/svg+xml</dc:format>
        <dc:type
           rdf:resource="http://purl.org/dc/dcmitype/StillImage" />
        <dc:title />
      </cc:Work>
    </rdf:RDF>
  </metadata>
  <g
     inkscape:label="Layer 1"
     inkscape:groupmode="layer"
     id="layer1">
    <path
       style="fill:#800000;fill-opacity:1;fill-rule:evenodd;stroke:#000000;stroke-width:1px;stroke-linecap:butt;stroke-linejoin:miter;stroke-opacity:1"
       d="m 152.21653,429.93559 c 31.8743,-7.93563 57.6403,20.54997 87.99144,24.63713 19.654,1.18196 43.02431,9.22441 60.42653,-2.80346 19.99584,-23.57554 26.39484,-54.97681 42.99688,-80.78396 8.4573,-20.07017 16.74867,-40.88661 32.73954,-56.23252 17.69201,-16.87717 41.35327,-28.75069 65.48874,-33.0345 27.90441,-7.54587 52.82279,17.40847 39.4098,44.55151 -5.18416,27.88693 -27.02206,48.63756 -33.96185,76.04582 -13.5842,24.17929 8.75789,50.4082 33.39203,52.98218 30.42761,7.7711 62.32008,0.85629 93.3039,3.12328 28.69507,0.15504 53.711,20.36087 58.89735,48.70728 5.45708,27.50982 4.88954,63.2388 -21.21388,80.42896 -24.40193,9.83993 -46.07063,-11.00849 -67.05692,-20.50328 -17.31261,-10.46136 -50.29688,-27.06013 -58.72157,1.91231 -0.90319,23.93804 20.70129,41.00824 28.75781,62.53915 15.38996,24.68543 24.0068,54.52643 15.71093,83.20562 -1.62662,24.74351 -19.30504,53.60936 -47.74388,45.78068 -27.00268,-2.56733 -42.24962,-29.26163 -44.56355,-53.78778 -12.01226,-27.45572 0.65451,-61.73847 -19.36619,-86.00065 -25.33356,-20.87963 -36.77558,9.28931 -43.116,29.50116 -11.89592,30.61342 -8.28883,67.32402 -30.4167,93.42199 -18.33974,12.53749 -43.31483,18.52035 -64.8232,11.76761 -29.59045,-10.66844 -19.44062,-46.50893 -9.57129,-67.91966 14.73269,-33.83215 35.6005,-69.01401 26.58798,-107.41101 -9.13206,-26.62873 -47.80421,-21.3102 -70.85108,-29.01854 -24.31726,-6.94966 -44.88269,-22.98814 -62.76678,-40.16966 -16.18969,-18.2059 -34.63073,-40.49602 -25.10155,-66.53176 1.76201,-7.08202 7.10118,-11.65888 13.57151,-14.4079 z"
       id="path4349"
       inkscape:connector-curvature="0" />
  </g>
</svg>
