<?xml version="1.0" encoding="UTF-8" standalone="no"?>
<!-- Created with Inkscape (http://www.inkscape.org/) -->

<svg
   xmlns:dc="http://purl.org/dc/elements/1.1/"
   xmlns:cc="http://creativecommons.org/ns#"
   xmlns:rdf="http://www.w3.org/1999/02/22-rdf-syntax-ns#"
   xmlns:svg="http://www.w3.org/2000/svg"
   xmlns="http://www.w3.org/2000/svg"
   xmlns:sodipodi="http://sodipodi.sourceforge.net/DTD/sodipodi-0.dtd"
   xmlns:inkscape="http://www.inkscape.org/namespaces/inkscape"
   width="210mm"
   height="297mm"
   viewBox="0 0 744.09448819 1052.3622047"
   id="svg4429"
   version="1.1"
   inkscape:version="0.91 r13725"
   sodipodi:docname="neuron3-inkscape2-a4c.svg">
  <defs
     id="defs4431" />
  <sodipodi:namedview
     id="base"
     pagecolor="#ffffff"
     bordercolor="#666666"
     borderopacity="1.0"
     inkscape:pageopacity="0.0"
     inkscape:pageshadow="2"
     inkscape:zoom="1.4142136"
     inkscape:cx="324.64916"
     inkscape:cy="520"
     inkscape:document-units="px"
     inkscape:current-layer="layer1"
     showgrid="false"
     inkscape:window-width="1920"
     inkscape:window-height="1015"
     inkscape:window-x="0"
     inkscape:window-y="0"
     inkscape:window-maximized="1" />
  <metadata
     id="metadata4434">
    <rdf:RDF>
      <cc:Work
         rdf:about="">
        <dc:format>image/svg+xml</dc:format>
        <dc:type
           rdf:resource="http://purl.org/dc/dcmitype/StillImage" />
        <dc:title />
      </cc:Work>
    </rdf:RDF>
  </metadata>
  <g
     inkscape:label="Layer 1"
     inkscape:groupmode="layer"
     id="layer1">
    <path
       style="fill:#800000;fill-opacity:1;fill-rule:evenodd;stroke:#000000;stroke-width:1px;stroke-linecap:butt;stroke-linejoin:miter;stroke-opacity:1"
       d="m 152.21653,429.93559 c 31.8743,-7.93563 57.6403,20.54997 87.99144,24.63713 18.66193,0.39989 43.28575,10.53924 58.24539,-3.46982 8.56061,-24.50523 0.0162,-50.71954 4.2714,-75.98899 -0.62118,-25.96568 -4.35953,-57.04543 18.03027,-75.48554 17.67671,-14.30017 41.15076,-23.06973 63.89739,-16.2034 21.23119,4.48849 31.43662,24.67684 35.09173,44.11803 6.83869,24.70157 -3.85223,49.9173 1.57858,74.9218 0.64939,24.45463 22.59396,40.72503 43.46123,48.90459 36.56435,13.00201 75.50852,4.26124 113.2065,7.47724 24.60785,1.25866 46.41503,17.49581 52.83817,41.57202 7.96208,28.31724 8.68372,66.03552 -17.22623,85.65115 -25.80972,13.31344 -49.85807,-11.16776 -72.68204,-20.97987 -18.59085,-16.7541 -63.56013,-18.80794 -54.09182,16.98077 16.11345,29.81676 47.55867,48.11696 68.05775,75.06991 21.31967,21.63283 30.53334,52.17992 35.12343,81.38827 1.13769,30.52605 -36.78006,24.8089 -54.6841,14.71392 -25.0253,-11.42772 -38.05507,-36.11814 -54.29971,-56.61923 -19.82036,-26.64108 -27.04816,-66.79975 -60.85013,-79.97273 -28.85353,-14.523 -38.62389,15.08324 -45.8828,36.85574 -10.25099,29.88377 -7.85705,64.97946 -29.12204,90.11993 -18.33974,12.5375 -43.31484,18.52035 -64.8232,11.76761 -29.59045,-10.66845 -19.44062,-46.50893 -9.57129,-67.91966 14.73269,-33.83215 35.6005,-69.01401 26.58798,-107.41101 -9.13206,-26.62873 -47.80421,-21.3102 -70.85108,-29.01854 -24.31726,-6.94967 -44.88269,-22.98814 -62.76678,-40.16966 -16.18969,-18.2059 -34.63074,-40.49602 -25.10155,-66.53176 1.76202,-7.08202 7.10118,-11.65888 13.57151,-14.4079 z"
       id="path4349"
       inkscape:connector-curvature="0" />
  </g>
</svg>
