<?xml version="1.0" encoding="UTF-8" standalone="no"?>
<!-- Created with Inkscape (http://www.inkscape.org/) -->

<svg
   xmlns:dc="http://purl.org/dc/elements/1.1/"
   xmlns:cc="http://creativecommons.org/ns#"
   xmlns:rdf="http://www.w3.org/1999/02/22-rdf-syntax-ns#"
   xmlns:svg="http://www.w3.org/2000/svg"
   xmlns="http://www.w3.org/2000/svg"
   xmlns:sodipodi="http://sodipodi.sourceforge.net/DTD/sodipodi-0.dtd"
   xmlns:inkscape="http://www.inkscape.org/namespaces/inkscape"
   width="210mm"
   height="297mm"
   viewBox="0 0 744.09448819 1052.3622047"
   id="svg4429"
   version="1.1"
   inkscape:version="0.91 r13725"
   sodipodi:docname="neuron3-inkscape2-a0.svg">
  <defs
     id="defs4431" />
  <sodipodi:namedview
     id="base"
     pagecolor="#ffffff"
     bordercolor="#666666"
     borderopacity="1.0"
     inkscape:pageopacity="0.0"
     inkscape:pageshadow="2"
     inkscape:zoom="1.4"
     inkscape:cx="375"
     inkscape:cy="520"
     inkscape:document-units="px"
     inkscape:current-layer="layer1"
     showgrid="false"
     inkscape:window-width="1920"
     inkscape:window-height="1015"
     inkscape:window-x="0"
     inkscape:window-y="0"
     inkscape:window-maximized="1" />
  <metadata
     id="metadata4434">
    <rdf:RDF>
      <cc:Work
         rdf:about="">
        <dc:format>image/svg+xml</dc:format>
        <dc:type
           rdf:resource="http://purl.org/dc/dcmitype/StillImage" />
        <dc:title></dc:title>
      </cc:Work>
    </rdf:RDF>
  </metadata>
  <g
     inkscape:label="Layer 1"
     inkscape:groupmode="layer"
     id="layer1">
    <path
       style="fill:none;fill-rule:evenodd;stroke:#000000;stroke-width:1px;stroke-linecap:butt;stroke-linejoin:miter;stroke-opacity:1"
       d="m 152.21653,429.93559 8,-2 11,0.5 9,3.5 10.5,2.5 9,5.5 9.5,3.5 8.5,4 11.5,5 14,3 14.5,1 11.5,1.5 12,0 11.5,-1 6,-3 5,-6.5 7.5,-9 5,-11.5 7,-13.5 5,-13.5 5,-10 7.5,-12.49999 6.5,-15 7,-15.5 8,-16 10,-10.5 7.5,-9.5 11,-9 14,-6.5 11.5,-6.5 13.5,-5 16.5,-3 11.5,1 9,1 9,5 5,4.5 4.5,11.5 -2.5,11.5 -2.5,17 -5.5,15 -13.5,22 -8.5,18.99999 -5,12 -4,13.5 -1,10 3.5,7 5.5,9.5 7.5,6.5 7.5,4.5 8,1.5 10,4 12,0.5 9.5,1.5 12.5,0.5 12.5,-0.5 15.5,-1 13,-0.5 17.5,1.5 9,1 16.5,5.5 10,5.5 5.5,6.5 7,9.5 4.5,11 4,10.5 1.5,14.5 0,21.5 -2,13 -7,16 -10.5,11.5 -10,5.5 -13.5,-1 -14,-3.5 -10,-6.5 -16,-8 -13.5,-8 -11,-4.5 -12,-6 -11.5,-0.5 -9,2 -2,2 -1.5,1.5 -1.5,2 -4.5,8 -0.5,9.5 3.5,9 6,10.5 5,6.5 4,7.5 2.5,5 9,16.5 6,12 6,12.5 4,11 2.5,15 0,8.5 -1.5,14 -3,13.5 -2.5,14 -2.5,6.5 -7,10 -4.5,5.5 -10.5,6 -10,0 -14.5,-1 -10.5,-3.5 -8.5,-6.5 -11,-11.5 -6,-13.5 -1.5,-13 -4.5,-12 -3.5,-18.5 -1,-13.5 0,-11.5 -1.5,-12 -3,-10 -4,-9 -3.5,-5 -8.5,-3.5 -6.5,-2.5 -5,-0.5 -7,0.5 -2,2.5 -5,8 -2,9 -5,10.5 -5.5,12 -1.5,9.5 -2.5,9 -2.5,14.5 -3.5,12.5 -2,14 -6,12.5 -6,12 -5,4.5 -8.5,5.5 -7,2 -16,4.5 -14,2 -13,-2 -11.5,-4 -12,-14 -1.5,-15.5 2.5,-11.5 4.5,-16.5 5.5,-12 12.5,-29 7,-14.5 3.5,-13.5 3.5,-14 0,-17.5 -1.5,-11.5 -1,-8.5 -1.5,-4 -2,-2 -6,-3 -5,-2 -9.5,-3.5 -11,-3 -15.5,-2.5 -9.5,-2 -10.5,-1.5 -15,-6 -17,-9 -11.5,-10 -14,-9.5 -8,-10 -11,-13 -6,-9 -5,-8 -2.5,-12 1,-11.5 2,-12.5 5,-6 3.5,-2.5 z"
       id="path4349"
       inkscape:connector-curvature="0" />
  </g>
</svg>
